# AST/ASF file generated using VICON BodyLanguage
# -----------------------------------------------
:version 1.10
:name VICON
:units
  mass 1.0
  length 0.45
  angle deg
:documentation
   .ast/.asf automatically generated from VICON data using
   VICON BodyBuilder and BodyLanguage model FoxedUp or BRILLIANT.MOD
:root
   order TX TY TZ RX RY RZ
   axis XYZ
   position 0 0 0  
   orientation 0 0 0 
:bonedata
  begin
     id 1 
     name lhipjoint
     direction 0.589753 -0.68606 0.426044 
     length 2.54082 
     axis 0 0 0  XYZ
  end
  begin
     id 2 
     name lfemur
     direction 0.34202 -0.939693 0  
     length 7.04539  
     axis 0 0 20  XYZ
    dof rx ry rz
    limits (-160.0 20.0)
           (-70.0 70.0)
           (-60.0 70.0)
  end
  begin
     id 3 
     name ltibia
     direction 0.34202 -0.939693 0   
     length 7.83772   
     axis 0 0 20   XYZ
    dof rx
    limits (-10.0 170.0)
  end
  begin
     id 4 
     name lfoot
     direction 0.0596604 -0.163915 0.984669   
     length 2.39542   
     axis -90 7.62852e-016 20   XYZ
    dof rx rz
    limits (-45.0 90.0)
           (-70.0 20.0)
  end
  begin
     id 5 
     name ltoes
     direction 1.53514e-011 -4.21954e-011 1   
     length 1.2047   
     axis -90 7.62852e-016 20   XYZ
    dof rx
    limits (-90.0 20.0)
  end
  begin
     id 6 
     name rhipjoint
     direction -0.580585 -0.69168 0.429534   
     length 2.52018  
     axis 0 0 0  XYZ 
  end
  begin
     id 7 
     name rfemur
     direction -0.34202 -0.939693 0   
     length 7.0101   
     axis 0 0 -20   XYZ
    dof rx ry rz
    limits (-160.0 20.0)
           (-70.0 70.0)
           (-70.0 60.0)
  end
  begin
     id 8 
     name rtibia
     direction -0.34202 -0.939693 0   
     length 7.70628   
     axis 0 0 -20   XYZ
    dof rx
    limits (-10.0 170.0)
 end
 begin
     id 9 
     name rfoot
     direction -0.0696237 -0.19129 0.979061   
     length 2.52466  
     axis -90 -7.62852e-016 -20   XYZ
    dof rx rz
    limits (-45.0 90.0)
           (-20.0 70.0)
  end
  begin
     id 10 
     name rtoes
     direction -1.53519e-011 -4.21793e-011 1   
     length 1.266   
     axis -90 -7.62852e-016 -20   XYZ
    dof rx
    limits (-90.0 20.0)
  end
  begin
     id 11 
     name lowerback
     direction 0.00381965 0.995707 -0.0924856   
     length 2.20825   
     axis 0 0 0   XYZ
    dof rx ry rz
    limits (-20.0 45.0)
           (-30.0 30.0)
           (-30.0 30.0)
  end
  begin
     id 12 
     name upperback
     direction -0.0139043 0.999634 -0.0231929   
     length 2.21517   
     axis 0 0 0   XYZ
    dof rx ry rz
    limits (-20.0 45.0)
           (-30.0 30.0)
           (-30.0 30.0)
  end
  begin
     id 13 
     name thorax
     direction -0.0143933 0.999691 0.0202892   
     length 2.22911   
     axis 0 0 0   XYZ
    dof rx ry rz
    limits (-20.0 45.0)
           (-30.0 30.0)
           (-30.0 30.0)
  end
  begin
     id 14 
     name lowerneck
     direction -0.0251153 0.981819 0.188153   
     length 1.61782   
     axis 0 0 0   XYZ
    dof rx ry rz
    limits (-20.0 45.0)
           (-30.0 30.0)
           (-30.0 30.0)
  end
  begin
     id 15 
     name upperneck
     direction 0.0563891 0.969357 -0.239095   
     length 1.64526   
     axis 0 0 0   XYZ
    dof rx ry rz
    limits (-20.0 45.0)
           (-30.0 30.0)
           (-30.0 30.0)
  end
  begin
     id 16
     name head
     direction 0.0208328 0.99459 -0.101773  
     length 1.67436  
     axis 0 0 0   XYZ
    dof rx ry rz
    limits (-20.0 45.0)
           (-30.0 30.0)
           (-30.0 30.0)
  end
  begin
     id 17 
     name lclavicle
     direction 0.917689 0.397224 0.00772059  
     length 3.31102  
     axis 0 0 0   XYZ
    dof ry rz
    limits (-20.0 10.0)
           (0.0 20.0)
  end
  begin
     id 18 
     name lhumerus
     direction 1 -4.4896e-011 2.32308e-027   
     length 5.25537   
     axis 180 -30 -90   XYZ
    dof rx ry rz
    limits (-60.0 90.0)
           (-90.0 90.0)
           (-90.0 90.0)
  end
  begin
     id 19
     name lradius
     direction 1 -4.49005e-011 -2.04271e-027   
     length 3.38855   
     axis 180 -30 -90   XYZ
    dof rx
    limits (-10.0 170.0)
  end
  begin
     id 20
     name lwrist
     direction 1 -4.48892e-011 2.56952e-028   
     length 1.69428   
     axis -5.12785e-016 90 90   XYZ
    dof ry
    limits (-180.0 0.0)
 end
  begin
     id 21 
     name lhand
     direction 1 -4.48966e-011 5.13905e-028   
     length 0.614516   
     axis -3.27915e-016 90 90   XYZ
    dof rx rz
    limits (-90.0 90.0)
           (-45.0 45.0)
  end
  begin
     id 22 
     name lfingers
     direction 1 -4.48979e-011 1.02781e-027   
     length 0.495439   
     axis -6.5583e-016 90 90   XYZ
    dof rx
    limits (0.0 90.0)
  end
  begin
     id 23
     name lthumb
     direction 0.707107 -6.35001e-011 0.707107   
     length 0.711354   
     axis -90 45 2.85299e-015   XYZ
    dof rx rz
    limits (-45.0 45.0)
           (-45.0 45.0)
  end
  begin
     id 24 
     name rclavicle
     direction -0.938556 0.342765 -0.0403177   
     length 3.27019  
     axis 0 0 0   XYZ 
    dof ry rz
    limits (-10.0 20.0)
           (-20.0 0.0)
  end
  begin
     id 25 
     name rhumerus
     direction -1 -4.48966e-011 2.52291e-027  
     length 5.38183   
     axis 180 30 90   XYZ
    dof rx ry rz
    limits (-90.0 60.0)
           (-90.0 90.0)
           (-90.0 90.0)
  end
  begin
     id 26 
     name rradius
     direction -1 -4.4896e-011 1.5797e-027   
     length 3.16988   
     axis 180 30 90   XYZ
    dof rx
    limits (-10.0 170.0)
  end
  begin
     id 27 
     name rwrist
     direction -1 -4.48947e-011 2.56952e-028   
     length 1.58494   
     axis -5.12785e-016 -90 -90   XYZ
    dof ry
    limits (-180.0 0.0)
  end
  begin
     id 28
     name rhand
     direction -1 -4.49098e-011 5.13905e-028   
     length 0.637679   
     axis -3.27915e-016 -90 -90   XYZ
    dof rx rz
    limits (-90.0 90.0)
           (-45.0 45.0)
  end
  begin
     id 29
     name rfingers
     direction -1 -4.49026e-011 1.02781e-027   
     length 0.514113   
     axis -6.5583e-016 -90 -90   XYZ
    dof rx
    limits (0.0 90.0)
  end
  begin
     id 30
     name rthumb
     direction -0.707107 -6.3491e-011 0.707107   
     length 0.738167   
     axis -90 -45 -2.85299e-015   XYZ
    dof rx rz
    limits (-45.0 45.0)
           (-45.0 45.0)
  end
:hierarchy
  begin
    root lhipjoint rhipjoint lowerback
    lhipjoint lfemur
    lfemur ltibia
    ltibia lfoot
    lfoot ltoes
    rhipjoint rfemur
    rfemur rtibia
    rtibia rfoot
    rfoot rtoes
    lowerback upperback
    upperback thorax
    thorax lowerneck lclavicle rclavicle
    lowerneck upperneck
    upperneck head
    lclavicle lhumerus
    lhumerus lradius
    lradius lwrist
    lwrist lhand lthumb
    lhand lfingers
    rclavicle rhumerus
    rhumerus rradius
    rradius rwrist
    rwrist rhand rthumb
    rhand rfingers
  end

#!OML:ASF H:\Swim\Project 1\Capture day 1\Session 1\swimmer.ASF
:FULLY-SPECIFIED
:DEGREES
3208
root 4.39374 11.6649 7.41123 53.5995 -2.17579 -0.248587
lowerback 23.9213 0.263379 -1.81041
upperback 2.39145 -0.397388 -2.2819
thorax -10.7337 -0.1629 -1.37667
lowerneck -19.9103 -5.51143 -9.93115
upperneck 1.87697 -6.20685 14.5421
head 4.58202 -2.32794 5.61268
rclavicle -1.59028e-015 -8.05078e-015
rhumerus 37.0305 53.8987 13.5477
rradius 108.383
rwrist -42.3132
rhand -21.7527 15.3069
rfingers 7.12502
rthumb 4.6476 -14.6221
lclavicle -1.59028e-015 -8.05078e-015
lhumerus 29.488 -45.9134 -4.26428
lradius 105.769
lwrist 28.9872
lhand -22.6822 -354.939
lfingers 7.12502
lthumb 3.75001 -684.992
rfemur -30.7686 -10.6579 14.83
rtibia 82.6713
rfoot -12.6894 -4.39714
rtoes -11.5466
lfemur -21.039 7.43313 -20.2759
ltibia 71.4699
lfoot 6.67038 -1.18813
ltoes 0.648169
3209
root 4.39686 11.6724 7.43126 53.3942 -2.20378 -0.24172
lowerback 24.0237 0.275526 -1.83992
upperback 2.30331 -0.398427 -2.30424
thorax -10.8889 -0.162406 -1.38679
lowerneck -20.0417 -5.51677 -9.84564
upperneck 1.81109 -6.21996 14.5656
head 4.58243 -2.32833 5.60378
rclavicle 0 4.77083e-015
rhumerus 37.086 54.005 13.2111
rradius 109.137
rwrist -41.8764
rhand -22.4432 15.4773
rfingers 7.12502
rthumb 3.98084 -14.4652
lclavicle 0 4.77083e-015
lhumerus 29.6731 -46.1113 -3.96804
lradius 106.75
lwrist 29.0763
lhand -23.228 -354.705
lfingers 7.12502
lthumb 3.22293 -684.749
rfemur -31.037 -10.7696 14.8331
rtibia 83.2344
rfoot -12.5655 -4.33632
rtoes -11.4846
lfemur -21.5869 7.55622 -20.36
ltibia 72.443
lfoot 6.88415 -1.24716
ltoes 0.770697
3210
root 4.3999 11.68 7.45078 53.1929 -2.24222 -0.227444
lowerback 24.1274 0.286336 -1.88857
upperback 2.22047 -0.406021 -2.32494
thorax -11.0391 -0.163949 -1.38196
lowerneck -20.1896 -5.51614 -9.75843
upperneck 1.76576 -6.22474 14.5713
head 4.58963 -2.32453 5.58973
rclavicle -4.37326e-015 3.17062e-014
rhumerus 37.1474 54.0845 12.8317
rradius 109.871
rwrist -41.4588
rhand -23.1355 15.6231
rfingers 7.12502
rthumb 3.31223 -14.3309
lclavicle -4.37326e-015 3.17062e-014
lhumerus 29.8493 -46.2667 -3.66114
lradius 107.721
lwrist 29.1245
lhand -23.7768 -354.463
lfingers 7.12502
lthumb 2.6929 -684.501
rfemur -31.2754 -10.8844 14.8111
rtibia 83.8008
rfoot -12.4666 -4.2451
rtoes -11.5075
lfemur -22.1219 7.6769 -20.4598
ltibia 73.3968
lfoot 7.10959 -1.3054
ltoes 0.80977
3211
root 4.4028 11.6858 7.46464 52.9957 -2.27892 -0.209641
lowerback 24.2333 0.292709 -1.94144
upperback 2.14218 -0.42 -2.34093
thorax -11.1855 -0.168006 -1.36731
lowerneck -20.3425 -5.51199 -9.68362
upperneck 1.73061 -6.2223 14.5746
head 4.6 -2.31701 5.57782
rclavicle 1.03368e-014 1.51076e-014
rhumerus 37.2253 54.1317 12.4301
rradius 110.594
rwrist -41.0855
rhand -23.8636 15.7508
rfingers 7.12502
rthumb 2.60914 -14.213
lclavicle 1.03368e-014 1.51076e-014
lhumerus 30.0139 -46.3818 -3.33256
lradius 108.678
lwrist 29.1278
lhand -24.3023 -354.194
lfingers 7.12502
lthumb 2.18536 -684.225
rfemur -31.5128 -10.9998 14.7786
rtibia 84.3988
rfoot -12.407 -4.11442
rtoes -11.6214
lfemur -22.6668 7.68771 -20.5925
ltibia 74.3615
lfoot 7.29758 -1.30581
ltoes 0.745619
3212
root 4.40576 11.6904 7.47524 52.8015 -2.30868 -0.194639
lowerback 24.3447 0.294943 -1.98832
upperback 2.06698 -0.43733 -2.35116
thorax -11.3315 -0.173624 -1.34852
lowerneck -20.5268 -5.50577 -9.60604
upperneck 1.7309 -6.21732 14.5576
head 4.62454 -2.30736 5.55903
rclavicle 9.14409e-015 2.28602e-014
rhumerus 37.3187 54.1322 12.0153
rradius 111.32
rwrist -40.8025
rhand -24.6345 15.8674
rfingers 7.12502
rthumb 1.86461 -14.1042
lclavicle 9.14409e-015 2.28602e-014
lhumerus 30.1754 -46.465 -2.98576
lradius 109.617
lwrist 29.0741
lhand -24.8083 -353.905
lfingers 7.12502
lthumb 1.69676 -683.932
rfemur -31.7305 -11.1185 14.7426
rtibia 85.0104
rfoot -12.3564 -3.95862
rtoes -11.7928
lfemur -23.2068 7.65471 -20.7309
ltibia 75.3268
lfoot 7.42363 -1.30158
ltoes 0.649113
3213
root 4.40889 11.6938 7.48245 52.6124 -2.32675 -0.184506
lowerback 24.4594 0.290706 -2.02054
upperback 1.99371 -0.458507 -2.35474
thorax -11.4774 -0.181438 -1.32937
lowerneck -20.6951 -5.50007 -9.55093
upperneck 1.71329 -6.20777 14.5486
head 4.64159 -2.29628 5.54722
rclavicle -3.97569e-015 9.93923e-015
rhumerus 37.4412 54.0757 11.6101
rradius 112.055
rwrist -40.617
rhand -25.4592 15.967
rfingers 7.12502
rthumb 1.06811 -14.0101
lclavicle -3.97569e-015 9.93923e-015
lhumerus 30.3357 -46.5355 -2.61985
lradius 110.53
lwrist 28.9651
lhand -25.3791 -353.611
lfingers 7.12502
lthumb 1.14544 -683.634
rfemur -31.9279 -11.2386 14.709
rtibia 85.6309
rfoot -12.275 -3.80943
rtoes -12.0199
lfemur -23.7424 7.57896 -20.8708
ltibia 76.295
lfoot 7.47084 -1.29403
ltoes 0.591322
3214
root 4.41214 11.6962 7.48657 52.4286 -2.33471 -0.183613
lowerback 24.5779 0.287895 -2.02806
upperback 1.92498 -0.471773 -2.36168
thorax -11.6206 -0.186967 -1.3308
lowerneck -20.8956 -5.49705 -9.46944
upperneck 1.72298 -6.20686 14.5147
head 4.67085 -2.2888 5.52179
rclavicle 7.95139e-015 -1.19271e-015
rhumerus 37.5391 53.9474 11.1687
rradius 112.802
rwrist -40.5351
rhand -26.3148 16.0279
rfingers 7.12502
rthumb 0.241734 -13.9517
lclavicle 7.95139e-015 -1.19271e-015
lhumerus 30.5517 -46.6 -2.27904
lradius 111.421
lwrist 28.8867
lhand -26.0679 -353.353
lfingers 7.12502
lthumb 0.480171 -683.374
rfemur -32.1031 -11.3498 14.6814
rtibia 86.2488
rfoot -12.2069 -3.64157
rtoes -12.2655
lfemur -24.2688 7.4816 -21.0067
ltibia 77.2572
lfoot 7.4569 -1.27582
ltoes 0.558585
3215
root 4.4155 11.6981 7.48919 52.2523 -2.33345 -0.194826
lowerback 24.6937 0.285344 -2.01217
upperback 1.86418 -0.478205 -2.36961
thorax -11.7535 -0.19067 -1.34893
lowerneck -21.1153 -5.49844 -9.38021
upperneck 1.73577 -6.21225 14.4708
head 4.70392 -2.28418 5.49102
rclavicle -4.77083e-015 1.33186e-014
rhumerus 37.6258 53.7358 10.6945
rradius 113.547
rwrist -40.5059
rhand -27.2155 16.067
rfingers 7.12502
rthumb -0.628194 -13.9119
lclavicle -4.77083e-015 1.33186e-014
lhumerus 30.8095 -46.6536 -1.94434
lradius 112.283
lwrist 28.8451
lhand -26.8767 -353.14
lfingers 7.12502
lthumb -0.300986 -683.161
rfemur -32.2464 -11.4412 14.6643
rtibia 86.8463
rfoot -12.1374 -3.47482
rtoes -12.5183
lfemur -24.7764 7.39877 -21.1283
ltibia 78.2011
lfoot 7.3777 -1.24898
ltoes 0.657961
3216
root 4.4189 11.7001 7.49173 52.0838 -2.32819 -0.21711
lowerback 24.8055 0.284062 -1.97952
upperback 1.81178 -0.478345 -2.38029
thorax -11.8748 -0.192576 -1.38181
lowerneck -21.3307 -5.50383 -9.28859
upperneck 1.72751 -6.22263 14.4307
head 4.73046 -2.28251 5.46048
rclavicle 7.95139e-016 -1.70955e-014
rhumerus 37.6877 53.4621 10.1461
rradius 114.264
rwrist -40.46
rhand -28.135 16.072
rfingers 7.12502
rthumb -1.5163 -13.9023
lclavicle 7.95139e-016 -1.70955e-014
lhumerus 31.1025 -46.6766 -1.60828
lradius 113.122
lwrist 28.8575
lhand -27.744 -352.962
lfingers 7.12502
lthumb -1.13866 -682.986
rfemur -32.3508 -11.51 14.6542
rtibia 87.408
rfoot -12.0486 -3.32543
rtoes -12.7841
lfemur -25.2549 7.35324 -21.2346
ltibia 79.1123
lfoot 7.27295 -1.21315
ltoes 0.87324
